<svg id="Layer_12" data-name="Layer 12" xmlns="http://www.w3.org/2000/svg" xmlns:xlink="http://www.w3.org/1999/xlink" viewBox="0 0 761.02 769.12"><defs><style>.cls-1{fill:url(#linear-gradient);}.cls-2{fill:url(#linear-gradient-2);}.cls-3{fill:url(#linear-gradient-3);}.cls-4{fill:url(#linear-gradient-4);}.cls-5{fill:url(#linear-gradient-5);}.cls-6{fill:url(#linear-gradient-6);}.cls-7{fill:url(#linear-gradient-7);}.cls-8{fill:url(#linear-gradient-8);}.cls-9{fill:url(#linear-gradient-9);}.cls-10{fill:url(#linear-gradient-10);}.cls-11{fill:url(#linear-gradient-11);}.cls-12{fill:url(#linear-gradient-12);}.cls-13{fill:none;}.cls-14{fill:url(#linear-gradient-13);}.cls-15{fill:url(#linear-gradient-14);}.cls-16{fill:url(#linear-gradient-15);}.cls-17{fill:url(#linear-gradient-16);}.cls-18{fill:url(#linear-gradient-17);}.cls-19{fill:url(#linear-gradient-18);}.cls-20{fill:url(#linear-gradient-19);}.cls-21{fill:url(#linear-gradient-20);}.cls-22{fill:url(#linear-gradient-21);}.cls-23{fill:url(#linear-gradient-22);}.cls-24{fill:url(#linear-gradient-26);}.cls-25{fill:url(#linear-gradient-27);}.cls-26{fill:url(#linear-gradient-28);}.cls-27{fill:url(#linear-gradient-29);}.cls-28{fill:url(#linear-gradient-30);}.cls-29{fill:url(#linear-gradient-31);}.cls-30{fill:url(#linear-gradient-32);}.cls-31{fill:url(#linear-gradient-33);}</style><linearGradient id="linear-gradient" x1="654" y1="405.01" x2="1046.76" y2="405.01" gradientUnits="userSpaceOnUse"><stop offset="0.12" stop-color="#84c5ff"/><stop offset="0.14" stop-color="#7fc5fe"/><stop offset="0.31" stop-color="#52c7f4"/><stop offset="0.39" stop-color="#41c8f0"/><stop offset="0.48" stop-color="#52b8f4"/><stop offset="0.66" stop-color="#7e8eff"/></linearGradient><linearGradient id="linear-gradient-2" x1="613" y1="428.29" x2="968.16" y2="428.29" xlink:href="#linear-gradient"/><linearGradient id="linear-gradient-3" x1="727" y1="342.5" x2="1173.98" y2="342.5" xlink:href="#linear-gradient"/><linearGradient id="linear-gradient-4" x1="878" y1="288.34" x2="1217.92" y2="288.34" xlink:href="#linear-gradient"/><linearGradient id="linear-gradient-5" x1="939" y1="267.01" x2="1268.81" y2="267.01" xlink:href="#linear-gradient"/><linearGradient id="linear-gradient-6" x1="146.45" y1="284.57" x2="157.51" y2="284.57" xlink:href="#linear-gradient"/><linearGradient id="linear-gradient-7" x1="732" y1="474.78" x2="764.77" y2="474.78" xlink:href="#linear-gradient"/><linearGradient id="linear-gradient-8" x1="732" y1="494.04" x2="766.49" y2="494.04" xlink:href="#linear-gradient"/><linearGradient id="linear-gradient-9" x1="94.45" y1="375.84" x2="137.45" y2="375.84" xlink:href="#linear-gradient"/><linearGradient id="linear-gradient-10" x1="94.45" y1="350.19" x2="137.45" y2="350.19" xlink:href="#linear-gradient"/><linearGradient id="linear-gradient-11" x1="94.45" y1="298.69" x2="137.45" y2="298.69" xlink:href="#linear-gradient"/><linearGradient id="linear-gradient-12" x1="593" y1="475.04" x2="665" y2="475.04" xlink:href="#linear-gradient"/><linearGradient id="linear-gradient-13" x1="868.32" y1="805.01" x2="885.69" y2="805.01" xlink:href="#linear-gradient"/><linearGradient id="linear-gradient-14" x1="711.36" y1="816" x2="778.81" y2="816" xlink:href="#linear-gradient"/><linearGradient id="linear-gradient-15" x1="585.55" y1="895.5" x2="644.63" y2="895.5" xlink:href="#linear-gradient"/><linearGradient id="linear-gradient-16" x1="646.75" y1="863.5" x2="704.09" y2="863.5" xlink:href="#linear-gradient"/><linearGradient id="linear-gradient-17" x1="811.46" y1="691.87" x2="943.5" y2="691.87" xlink:href="#linear-gradient"/><linearGradient id="linear-gradient-18" x1="823.74" y1="796.58" x2="839.37" y2="796.58" xlink:href="#linear-gradient"/><linearGradient id="linear-gradient-19" x1="957.38" y1="620.47" x2="1287.5" y2="620.47" xlink:href="#linear-gradient"/><linearGradient id="linear-gradient-20" x1="1163.09" y1="829.13" x2="1230.57" y2="829.13" xlink:href="#linear-gradient"/><linearGradient id="linear-gradient-21" x1="1236.82" y1="857.24" x2="1284.14" y2="857.24" xlink:href="#linear-gradient"/><linearGradient id="linear-gradient-22" x1="1290.87" y1="901.38" x2="1346.56" y2="901.38" xlink:href="#linear-gradient"/><linearGradient id="linear-gradient-26" x1="1009.29" y1="832.78" x2="1078.75" y2="832.78" xlink:href="#linear-gradient"/><linearGradient id="linear-gradient-27" x1="1109.35" y1="787.56" x2="1154.35" y2="787.56" xlink:href="#linear-gradient"/><linearGradient id="linear-gradient-28" x1="848.47" y1="848.09" x2="871.07" y2="848.09" xlink:href="#linear-gradient"/><linearGradient id="linear-gradient-29" x1="886.45" y1="869" x2="900.64" y2="869" xlink:href="#linear-gradient"/><linearGradient id="linear-gradient-30" x1="586.55" y1="895.5" x2="645.63" y2="895.5" xlink:href="#linear-gradient"/><linearGradient id="linear-gradient-31" x1="647.75" y1="863.5" x2="705.09" y2="863.5" xlink:href="#linear-gradient"/><linearGradient id="linear-gradient-32" x1="712.36" y1="816" x2="779.81" y2="816" xlink:href="#linear-gradient"/><linearGradient id="linear-gradient-33" x1="783.94" y1="769.68" x2="840.83" y2="769.68" xlink:href="#linear-gradient"/></defs><title>webprojectTemp</title><path class="cls-1" d="M850.08,282.81C809.66,263.22,759,248,714,248c-32.75,17.9-41.49,24-60,35,35.22,6.45,71.84,12.11,105,27,158.23,71.06,245.28,182,212.49,248.64l-4.8,3.38a38.7,38.7,0,0,0,15.4-9,13.66,13.66,0,0,1,1.43-1.21l59.75-45.44C1065,443.62,983.84,347.62,850.08,282.81Z" transform="translate(-585.55 -161.83)"/><path class="cls-2" d="M766,326c-64.68-31.17-106-34-125-33-.49.43-13.55,5.53-14,6-13.14,13.49-19.54,24.45-7.94,37.89a23.88,23.88,0,0,0,4.43,4L926.22,551.33a22.37,22.37,0,0,1,2.45,2,39.15,39.15,0,0,0,35.25,9.42C986.79,495.89,916.63,398.59,766,326Z" transform="translate(-585.55 -161.83)"/><path class="cls-3" d="M1003.15,226c-46.38-21-93.57-35.1-136.51-42-15.8,4-38.5,10-53.64,15,37.67,8.78,83.86,20.79,123,38.78,134,61.65,213,154.22,182.48,211.11l-6.62,5.11c24-57.19-54.37-146.42-184.75-206.4a609.39,609.39,0,0,0-127.91-42.74c-6.83,2.63-13.27,5.35-19.17,8.14-10.16,4.8-41,19.62-53,26,46,4,78.37,6.22,117,23,145,63,234.86,176.46,206.34,239l119.75-91.1C1191.75,358.93,1121,279.41,1003.15,226Z" transform="translate(-585.55 -161.83)"/><path class="cls-4" d="M1067.33,211.69c-48.88-22.48-98.77-36-142.06-40.36C915,173.13,890.34,178.25,878,181c38.41,7.58,92.63,17.81,133.19,36.21,121.1,54.94,192.51,137.43,164.88,188.13l38.38-29.19C1233.68,330.61,1171.25,259.48,1067.33,211.69Z" transform="translate(-585.55 -161.83)"/><path class="cls-5" d="M1237,287c-34-39-101.27-74.08-128-87-60-29-112-35-123-37-11.22-2-19-1-27,0-.3,0-20.29,3.95-20,4,36.66,6.82,97.08,19.24,135.41,36.86,106.92,49.17,169.89,123,145.25,168.33l45.21-34.4a10.65,10.65,0,0,0,3.92-5.63C1269.65,329,1242,292.68,1237,287Z" transform="translate(-585.55 -161.83)"/><polygon class="cls-6" points="146.46 276.79 146.46 292.35 157.51 284.8 146.46 276.79"/><path class="cls-7" d="M761.05,466.33l3.72-4-14-10.13L732,465.08v32.25L749.15,479A34.59,34.59,0,0,1,761.05,466.33Z" transform="translate(-585.55 -161.83)"/><path class="cls-8" d="M747.13,483.67,732,499.82v4.59l14.07-16.65A28.56,28.56,0,0,1,747.13,483.67Z" transform="translate(-585.55 -161.83)"/><polygon class="cls-9" points="94.45 404.1 137.46 353.23 137.46 347.59 94.45 393.47 94.45 404.1"/><polygon class="cls-10" points="94.45 338.78 94.45 390.99 137.46 345.1 137.46 309.4 94.45 338.78"/><polygon class="cls-11" points="136.38 269.49 94.45 270.97 94.45 327.88 137.46 298.5 137.46 270.27 136.38 269.49"/><path class="cls-12" d="M616.34,354.84a14,14,0,0,0-16.46-.1c-7.13,5.43-6.88,17.08-6.88,30.4,0,.24,0,.48,0,.71l7.24,128.27c0,.25,0,.51,0,.76,0,18.1-1.94,19.74,13.22,39.23q.3.39.63.75L652.91,598,665,583.67V390.09Z" transform="translate(-585.55 -161.83)"/><path class="cls-13" d="M859.59,878q-6,0-8.55-14.26t-2.57-42.6q0-28.33,5.79-160.68l-4.88-40.7Q859.77,592,868.32,592q7.06,0,7.07,35.75,0,10.65-3.86,93.56l4.32-14.84q13.41-46.4,13.42-79.1,0-9.89-.74-17.88,6.81-17.12,12.87-17.11,9,0,9,38,0,42.6-18.28,86.33,8.53,113.34,18.47,140a48.15,48.15,0,0,1-6,14.64q-4,6.28-7.12,6.28-6.26,0-10-13.31t-6.8-49.06l-5.33-62-5.7,12.55q-1.29,31.19-1.28,39.93,0,36.9,2.75,55.14Q865.57,878,859.59,878Z" transform="translate(-585.55 -161.83)"/><path class="cls-13" d="M859.59,878q-6,0-8.55-14.26t-2.57-42.6q0-28.33,5.79-160.68l-4.88-40.7Q859.77,592,868.32,592q7.06,0,7.07,35.75,0,10.65-3.86,93.56l4.32-14.84q13.41-46.4,13.42-79.1,0-9.89-.74-17.88,6.81-17.12,12.87-17.11,9,0,9,38,0,42.6-18.28,86.33,8.53,113.34,18.47,140a48.15,48.15,0,0,1-6,14.64q-4,6.28-7.12,6.28-6.26,0-10-13.31t-6.8-49.06l-5.33-62-5.7,12.55q-1.29,31.19-1.28,39.93,0,36.9,2.75,55.14Q865.57,878,859.59,878Z" transform="translate(-585.55 -161.83)"/><path class="cls-14" d="M875.3,753.26l-5.7,12.55q-1.29,31.19-1.28,39.93,0,18.62.7,32.49l16.67,18.54q-2.75-14.22-5.06-41.52Z" transform="translate(-585.55 -161.83)"/><path class="cls-15" d="M711.36,826.33q0-44.58,9.74-71.46T747.75,728q5.41,0,7.77,5.52t2.34,17c0,1.09-.06,3.21-.19,6.34q3.41-7.05,7.54-7,5.61,0,9.6,12.79t4,37a299.88,299.88,0,0,1-3,44.36q-3,20.18-8,33.09T756.34,897q-6.39,7-13.18,7-14.71,0-23.25-21.47T711.36,826.33Zm45.86,11a128,128,0,0,1-5.89-39.43q0-21.12,3.68-34a8.56,8.56,0,0,0-3.31-.7q-6.53,0-11.3,10.09-9,18.78-9,52.1,0,19,3.31,31.68t9.19,12.67q4.5,0,8.23-9T757.22,837.36Z" transform="translate(-585.55 -161.83)"/><path class="cls-16" d="M620.37,864q12.14,0,18.2,2.56t6.06,8.15q0,5.6-3.72,8.48a13.41,13.41,0,0,1-8.5,2.9,16.76,16.76,0,0,1-8.59-2.22,11.9,11.9,0,0,1-5.28-5.93,11.48,11.48,0,0,0-6.48,2.06,8.89,8.89,0,0,0-3.91,5.34q18.2,4,26.1,9.4t7.9,13.78q0,8.4-8.31,13.44t-22.43,5q-14.1,0-20-3.53t-5.88-9.32a16.53,16.53,0,0,1,4-10.67q1.92,3.78,7.39,6.8a22.19,22.19,0,0,0,10.8,3q9.84,0,12.5-5.71-15.26-1.86-23.25-7.77t-8-14.33a16.3,16.3,0,0,1,3.3-10,21.71,21.71,0,0,1,8.46-6.77A46.52,46.52,0,0,1,620.37,864Z" transform="translate(-585.55 -161.83)"/><path class="cls-17" d="M646.75,835.22q0-11,3.86-16.63t9.23-5.59q5.38,0,14.66,2.73t14,2.86a108.57,108.57,0,0,0,14.88-5.32,44.7,44.7,0,0,1,.74,8.86q0,11-4.27,16.63a13.14,13.14,0,0,1-10.89,5.59q-1.66,0-4.41-.27-5.06,39.39-5.06,44,0,13.23,2.76,19.77Q676.7,914,670.73,914a8.87,8.87,0,0,1-8.55-5.11q-2.56-5.11-2.57-15.27t5.33-54.18a118.49,118.49,0,0,0-17.46,4.64A43.48,43.48,0,0,1,646.75,835.22Z" transform="translate(-585.55 -161.83)"/><path class="cls-13" d="M782.94,782a398.81,398.81,0,0,1,2.76-46.36,345.72,345.72,0,0,1,7.81-43.76q5.06-20.16,13.19-33T823.52,646q8.68,0,13.6,11.39T842,689q0,20.17-3.72,31.39t-8.5,11.22q-4.77,0-8.59-7.32t-6.11-21q-5,8.46-8.55,33.18A345.49,345.49,0,0,0,803,786.06q0,24.88,2.3,39.36t6.52,14.48q4.23,0,7.49-15.29t3.26-36.77c6.19,0,10.62,1.75,13.28,5.21s4,11,4,22.45a153.32,153.32,0,0,1-8.27,50.75Q823.28,890,810.79,890t-20.17-27.33Q782.94,835.34,782.94,782Z" transform="translate(-585.55 -161.83)"/><path class="cls-13" d="M782.94,782a398.81,398.81,0,0,1,2.76-46.36,345.72,345.72,0,0,1,7.81-43.76q5.06-20.16,13.19-33T823.52,646q8.68,0,13.6,11.39T842,689q0,20.17-3.72,31.39t-8.5,11.22q-4.77,0-8.59-7.32t-6.11-21q-5,8.46-8.55,33.18A345.49,345.49,0,0,0,803,786.06q0,24.88,2.3,39.36t6.52,14.48q4.23,0,7.49-15.29t3.26-36.77c6.19,0,10.62,1.75,13.28,5.21s4,11,4,22.45a153.32,153.32,0,0,1-8.27,50.75Q823.28,890,810.79,890t-20.17-27.33Q782.94,835.34,782.94,782Z" transform="translate(-585.55 -161.83)"/><path class="cls-18" d="M939.86,631.64c0-17.74-5.22-40-14.74-52.45a13.63,13.63,0,0,0-2.83-2.74L811.55,496.24q0,.75-.09,1.5l.26.21,5.52,149.78a12.81,12.81,0,0,1,6.28-1.73q8.68,0,13.6,11.39T842,689q0,20.17-3.72,31.39t-8.5,11.22q-4.77,0-8.59-7.32c-.44-.83-.85-1.76-1.26-2.72l2.32,62.87-.13-.14c.05.6.1,1.21.13,1.81v.21l1.46,1.62c5.56.21,9.6,1.93,12.09,5.16q2.65,3.45,3.54,12.22l9.14,10.16q.47-34.11,5.75-155l-4.88-40.7Q859.77,592,868.32,592q7.06,0,7.07,35.75,0,10.65-3.86,93.56l4.32-14.84q13.41-46.4,13.42-79.1,0-9.89-.74-17.88,6.81-17.12,12.87-17.11,9,0,9,38,0,42.6-18.28,86.33,8.53,113.34,18.47,140a48.15,48.15,0,0,1-6,14.64,26,26,0,0,1-2.61,3.51l11.38,12.65c19.32,0,30.16-5.42,30.16-24Z" transform="translate(-585.55 -161.83)"/><path class="cls-19" d="M823.74,787.89l15.63,17.38q-.89-8.76-3.54-12.22C833.34,789.82,829.3,788.1,823.74,787.89Z" transform="translate(-585.55 -161.83)"/><path class="cls-13" d="M1045.63,595.94q16.72-.21,25.27,11.31t8.92,36.88q.39,25.36-4.55,38.57T1063.75,696q-6.6.09-12-10t-7.7-26.79q-4.69,0-8.79,9.45t-5,24.27q25.37,18,36.64,42.26t11.84,62.39q.58,38.13-10.54,61.14T1037.6,882q-19.45.24-27.81-15.67T1001,824.14a202.34,202.34,0,0,1,4.72-48.49,93.27,93.27,0,0,0,10.67,30.76q7.74,13.64,15.1,13.54,13.56-.16,16.84-26.14-21.16-8.12-32.6-34.87t-12-64.87q-.39-25.53,3.88-45.61t11.19-30.84Q1032.45,596.1,1045.63,595.94Z" transform="translate(-585.55 -161.83)"/><path class="cls-13" d="M1045.63,595.94q16.72-.21,25.27,11.31t8.92,36.88q.39,25.36-4.55,38.57T1063.75,696q-6.6.09-12-10t-7.7-26.79q-4.69,0-8.79,9.45t-5,24.27q25.37,18,36.64,42.26t11.84,62.39q.58,38.13-10.54,61.14T1037.6,882q-19.45.24-27.81-15.67T1001,824.14a202.34,202.34,0,0,1,4.72-48.49,93.27,93.27,0,0,0,10.67,30.76q7.74,13.64,15.1,13.54,13.56-.16,16.84-26.14-21.16-8.12-32.6-34.87t-12-64.87q-.39-25.53,3.88-45.61t11.19-30.84Q1032.45,596.1,1045.63,595.94Z" transform="translate(-585.55 -161.83)"/><path class="cls-13" d="M1094,725.59q-.33-22,3.59-33.14t9.61-11.24q5.68-.08,15.59,5.24t14.87,5.51a88.31,88.31,0,0,0,15.6-10.77,166.63,166.63,0,0,1,1,17.62q.33,22-4,33.14t-11.36,11.26a26.1,26.1,0,0,1-4.68-.48q-4.18,78.43-4,87.66.39,26.31,3.5,39.29-5.65,12.27-12,12.35T1112.55,872q-2.88-10.14-3.18-30.34t4-107.87a83.94,83.94,0,0,0-18.34,9.44A157.59,157.59,0,0,1,1094,725.59Z" transform="translate(-585.55 -161.83)"/><path class="cls-20" d="M1287.49,384.55c0-.23,0-.47,0-.71-.16-13.32-.07-25-7-30.32a13,13,0,0,0-15.78.3L974.16,579a13.23,13.23,0,0,0-2.67,2.77c-9,12.53-13.71,34.88-13.49,52.62l-.62,231.89c.23,18.57,10.69,23.87,29.21,23.64l19.67-23.38q-7.49-15.58-7.86-40.44a201.85,201.85,0,0,1,4.71-48.49,93.72,93.72,0,0,0,10.67,30.76q7.76,13.64,15.1,13.54,13.56-.16,16.85-26.14-21.17-8.12-32.6-34.87t-12-64.87q-.39-25.53,3.87-45.61t11.2-30.84q13.61-21.52,26.79-21.68,16.74-.21,25.27,11.31t8.93,36.88q.38,25.36-4.55,38.57T1061.1,698q-6.58.09-12-10t-7.69-26.79q-4.7,0-8.8,9.45t-5,24.27q25.38,18,36.64,42.26,8.93,19.23,11.14,47.17l35.05-41.68c.12-2.29.23-4.6.35-7a84,84,0,0,0-18.35,9.44,162.58,162.58,0,0,1-1-17.61q-.33-22,3.6-33.14t9.6-11.24q5.7-.08,15.6,5.24t14.87,5.51a88.61,88.61,0,0,0,15.59-10.77c.39,3.07.67,6.65.85,10.72l117.85-140.12c.21-.24.4-.49.59-.75,14.3-19.67,12.44-21.29,12.19-39.38,0-.25,0-.51,0-.76Z" transform="translate(-585.55 -161.83)"/><path class="cls-21" d="M1177.18,845.22q-.15-3.35-.6-14.11t-.78-16.39q-.33-5.62-1.31-15.37a128.7,128.7,0,0,0-2.32-15.61q-3.35-15.43-9.08-22.09,7.46-8,12.18-8a11.59,11.59,0,0,1,7.87,2.59,22.14,22.14,0,0,1,5.2,6.41,45.24,45.24,0,0,1,3.71,10.47q1.65,6.7,2.52,12.24t1.52,14.28q.67,8.73.9,14.12t.5,14.2q.27,8.82.43,12.18h1.36q3.56-15.69,6.42-35.9t2.68-32.15a39,39,0,0,0-1.63-10.91q7.18-8,12.82-8.06,10.7-.13,11,19.37.15,9.92-3.88,33.34t-9.63,45.36q-7.26,28.5-15.19,41.22t-20.68,12.86a15.45,15.45,0,0,1-10.27-3.74q-5.61-4.47-5.77-15.23a57.23,57.23,0,0,1,4.44-22.25,20,20,0,0,0,5.86,8.25,12.24,12.24,0,0,0,8,2.84q4.32,0,8.11-4.22t5.31-11.92a24.2,24.2,0,0,1-9.4,2.3Q1178.19,861.36,1177.18,845.22Z" transform="translate(-585.55 -161.83)"/><path class="cls-22" d="M1240.17,914.06q-2.82-6.24-3-18.71t5.07-70.78l-5.42-17.84q10.82-12.36,19.86-12.46,7.48-.1,7.72,15.63.07,4.7-3.16,39.21t-3.1,43.89l10.51-.13a51.38,51.38,0,0,0,14.78-6.71,45.08,45.08,0,0,1,.71,8.2A43.33,43.33,0,0,1,1281,912q-3.24,7.74-9.17,7.81-4,0-13.86-3.51a12.5,12.5,0,0,1-8.6,4Q1243,920.3,1240.17,914.06Z" transform="translate(-585.55 -161.83)"/><path class="cls-23" d="M1302.23,930.94c-3.83,0-6.66-.89-8.51-2.83s-2.79-4.86-2.85-8.75,1.82-15,5.63-33.21l-5.28-8.33q10.9-5.85,20-6c3.83,0,6.22,1.39,7.17,4.31q11-.37,27.37-4.34a17.68,17.68,0,0,1,.85,5.09,10.48,10.48,0,0,1-5.06,9.63q-5.16,3.29-13.33,3.38a32.59,32.59,0,0,1-10.92-1.75q-.72,3.54-2.55,11.56a41.47,41.47,0,0,0,6.14.48q4-.68,8.72-1.91a13.73,13.73,0,0,1,.56,4.34,5.42,5.42,0,0,1-2.95,4.86,12.86,12.86,0,0,1-6.73,1.89,43.64,43.64,0,0,1-7.65-.61,44.57,44.57,0,0,0-.93,9.34l15.76-.19a90.61,90.61,0,0,0,14.83-3.24,10.25,10.25,0,0,1,.65,3.83,11.76,11.76,0,0,1-3.24,8.28q-3.3,3.65-9.23,3.72a61.24,61.24,0,0,1-9.11-.87c-4-.61-7-1-8.92-1.11A23.24,23.24,0,0,1,1302.23,930.94Z" transform="translate(-585.55 -161.83)"/><path class="cls-21" d="M1177.18,845.22q-.15-3.35-.6-14.11t-.78-16.39q-.33-5.62-1.31-15.37a128.7,128.7,0,0,0-2.32-15.61q-3.35-15.43-9.08-22.09,7.46-8,12.18-8a11.59,11.59,0,0,1,7.87,2.59,22.14,22.14,0,0,1,5.2,6.41,45.24,45.24,0,0,1,3.71,10.47q1.65,6.7,2.52,12.24t1.52,14.28q.67,8.73.9,14.12t.5,14.2q.27,8.82.43,12.18h1.36q3.56-15.69,6.42-35.9t2.68-32.15a39,39,0,0,0-1.63-10.91q7.18-8,12.82-8.06,10.7-.13,11,19.37.15,9.92-3.88,33.34t-9.63,45.36q-7.26,28.5-15.19,41.22t-20.68,12.86a15.45,15.45,0,0,1-10.27-3.74q-5.61-4.47-5.77-15.23a57.23,57.23,0,0,1,4.44-22.25,20,20,0,0,0,5.86,8.25,12.24,12.24,0,0,0,8,2.84q4.32,0,8.11-4.22t5.31-11.92a24.2,24.2,0,0,1-9.4,2.3Q1178.19,861.36,1177.18,845.22Z" transform="translate(-585.55 -161.83)"/><path class="cls-22" d="M1240.17,914.06q-2.82-6.24-3-18.71t5.07-70.78l-5.42-17.84q10.82-12.36,19.86-12.46,7.48-.1,7.72,15.63.07,4.7-3.16,39.21t-3.1,43.89l10.51-.13a51.38,51.38,0,0,0,14.78-6.71,45.08,45.08,0,0,1,.71,8.2A43.33,43.33,0,0,1,1281,912q-3.24,7.74-9.17,7.81-4,0-13.86-3.51a12.5,12.5,0,0,1-8.6,4Q1243,920.3,1240.17,914.06Z" transform="translate(-585.55 -161.83)"/><path class="cls-23" d="M1302.23,930.94c-3.83,0-6.66-.89-8.51-2.83s-2.79-4.86-2.85-8.75,1.82-15,5.63-33.21l-5.28-8.33q10.9-5.85,20-6c3.83,0,6.22,1.39,7.17,4.31q11-.37,27.37-4.34a17.68,17.68,0,0,1,.85,5.09,10.48,10.48,0,0,1-5.06,9.63q-5.16,3.29-13.33,3.38a32.59,32.59,0,0,1-10.92-1.75q-.72,3.54-2.55,11.56a41.47,41.47,0,0,0,6.14.48q4-.68,8.72-1.91a13.73,13.73,0,0,1,.56,4.34,5.42,5.42,0,0,1-2.95,4.86,12.86,12.86,0,0,1-6.73,1.89,43.64,43.64,0,0,1-7.65-.61,44.57,44.57,0,0,0-.93,9.34l15.76-.19a90.61,90.61,0,0,0,14.83-3.24,10.25,10.25,0,0,1,.65,3.83,11.76,11.76,0,0,1-3.24,8.28q-3.3,3.65-9.23,3.72a61.24,61.24,0,0,1-9.11-.87c-4-.61-7-1-8.92-1.11A23.24,23.24,0,0,1,1302.23,930.94Z" transform="translate(-585.55 -161.83)"/><path class="cls-24" d="M1009.79,866.36q8.36,15.92,27.81,15.67t30.58-23.26q11.11-23,10.54-61.14-.1-7.3-.61-14.1l-68.82,81.82C1009.46,865.69,1009.62,866,1009.79,866.36Z" transform="translate(-585.55 -161.83)"/><path class="cls-25" d="M1109.37,841.63q.3,20.21,3.18,30.34t9.19,10.06q6.33-.07,12-12.35-3.1-13-3.5-39.29-.15-9.21,4-87.66a26.1,26.1,0,0,0,4.68.48q7-.08,11.36-11.26t4-33.14c0-2-.08-3.9-.15-5.72L1113,742Q1109.09,822.4,1109.37,841.63Z" transform="translate(-585.55 -161.83)"/><path class="cls-26" d="M848.47,821.14q0,28.33,2.57,42.6T859.59,878q6,0,11.48-17.12-1.22-8-1.89-19.69l-20.7-23C848.47,819.23,848.47,820.24,848.47,821.14Z" transform="translate(-585.55 -161.83)"/><path class="cls-27" d="M887.43,864.31q3.77,13.31,10,13.31a5.13,5.13,0,0,0,3.19-1.46l-14.19-15.78C886.77,861.82,887.1,863.13,887.43,864.31Z" transform="translate(-585.55 -161.83)"/><path class="cls-28" d="M621.37,864q12.14,0,18.2,2.56t6.06,8.15q0,5.6-3.72,8.48a13.41,13.41,0,0,1-8.5,2.9,16.76,16.76,0,0,1-8.59-2.22,11.9,11.9,0,0,1-5.28-5.93,11.48,11.48,0,0,0-6.48,2.06,8.89,8.89,0,0,0-3.91,5.34q18.2,4,26.1,9.4t7.9,13.78q0,8.4-8.31,13.44t-22.43,5q-14.1,0-20-3.53t-5.88-9.32a16.53,16.53,0,0,1,4-10.67q1.92,3.78,7.39,6.8a22.19,22.19,0,0,0,10.8,3q9.84,0,12.5-5.71-15.26-1.86-23.25-7.77t-8-14.33a16.3,16.3,0,0,1,3.3-10,21.71,21.71,0,0,1,8.46-6.77A46.52,46.52,0,0,1,621.37,864Z" transform="translate(-585.55 -161.83)"/><path class="cls-29" d="M647.75,835.22q0-11,3.86-16.63t9.23-5.59q5.38,0,14.66,2.73t14,2.86a108.57,108.57,0,0,0,14.88-5.32,44.7,44.7,0,0,1,.74,8.86q0,11-4.27,16.63a13.14,13.14,0,0,1-10.89,5.59q-1.66,0-4.41-.27-5.06,39.39-5.06,44,0,13.23,2.76,19.77Q677.7,914,671.73,914a8.87,8.87,0,0,1-8.55-5.11q-2.56-5.11-2.57-15.27t5.33-54.18a118.49,118.49,0,0,0-17.46,4.64A43.48,43.48,0,0,1,647.75,835.22Z" transform="translate(-585.55 -161.83)"/><path class="cls-30" d="M712.36,826.33q0-44.58,9.74-71.46T748.75,728q5.41,0,7.77,5.52t2.34,17c0,1.09-.06,3.21-.19,6.34q3.41-7.05,7.54-7,5.61,0,9.6,12.79t4,37a299.88,299.88,0,0,1-3,44.36q-3,20.18-8,33.09T757.34,897q-6.39,7-13.18,7-14.71,0-23.25-21.47T712.36,826.33Zm45.86,11a128,128,0,0,1-5.89-39.43q0-21.12,3.68-34a8.56,8.56,0,0,0-3.31-.7q-6.53,0-11.3,10.09-9,18.78-9,52.1,0,19,3.31,31.68t9.19,12.67q4.5,0,8.23-9T758.22,837.36Z" transform="translate(-585.55 -161.83)"/><path class="cls-31" d="M820.29,824.61q-3.27,15.3-7.49,15.29t-6.52-14.48Q804,811,804,786.06a345.49,345.49,0,0,1,3.58-49.62q3.59-24.72,8.55-33.18c.6,3.57,1.28,6.8,2,9.72l-2.34-63.63a36.94,36.94,0,0,0-8.1,9.5q-8.13,12.85-13.19,33a345.72,345.72,0,0,0-7.81,43.76A398.81,398.81,0,0,0,783.94,782q0,53.35,7.68,80.68T811.79,890q12.5,0,20.77-23.75a153.32,153.32,0,0,0,8.27-50.75q0-3.9-.21-7.18l-17.08-19Q823.42,809.84,820.29,824.61Z" transform="translate(-585.55 -161.83)"/></svg>